<mxfile host="65bd71144e">
    <diagram id="cYCKkaFT44GMe3SrrQip" name="原型链">
        <mxGraphModel dx="776" dy="286" grid="1" gridSize="10" guides="1" tooltips="1" connect="1" arrows="1" fold="1" page="1" pageScale="1" pageWidth="291" pageHeight="413" math="0" shadow="0">
            <root>
                <mxCell id="0"/>
                <mxCell id="1" parent="0"/>
                <mxCell id="3" value="Person" style="text;html=1;align=center;verticalAlign=middle;resizable=0;points=[];autosize=1;strokeColor=none;fillColor=none;container=0;" parent="1" vertex="1">
                    <mxGeometry x="137" y="552" width="60" height="30" as="geometry"/>
                </mxCell>
                <mxCell id="5" value="构造函数" style="text;html=1;align=center;verticalAlign=middle;resizable=0;points=[];autosize=1;strokeColor=none;fillColor=none;container=0;" parent="1" vertex="1">
                    <mxGeometry x="132" y="582" width="70" height="30" as="geometry"/>
                </mxCell>
                <mxCell id="6" style="edgeStyle=none;html=1;entryX=0.442;entryY=0.033;entryDx=0;entryDy=0;entryPerimeter=0;" parent="1" source="8" target="3" edge="1">
                    <mxGeometry relative="1" as="geometry">
                        <mxPoint x="232" y="467" as="targetPoint"/>
                        <Array as="points">
                            <mxPoint x="332" y="517"/>
                            <mxPoint x="252" y="517"/>
                            <mxPoint x="164" y="517"/>
                        </Array>
                    </mxGeometry>
                </mxCell>
                <mxCell id="8" value="Person,prototype" style="text;html=1;align=center;verticalAlign=middle;resizable=0;points=[];autosize=1;strokeColor=none;fillColor=none;container=0;" parent="1" vertex="1">
                    <mxGeometry x="277" y="552" width="110" height="30" as="geometry"/>
                </mxCell>
                <mxCell id="2" value="" style="edgeStyle=none;html=1;" parent="1" source="3" target="8" edge="1">
                    <mxGeometry relative="1" as="geometry"/>
                </mxCell>
                <mxCell id="9" value="实例原型" style="text;html=1;align=center;verticalAlign=middle;resizable=0;points=[];autosize=1;strokeColor=none;fillColor=none;container=0;" parent="1" vertex="1">
                    <mxGeometry x="297" y="582" width="70" height="30" as="geometry"/>
                </mxCell>
                <mxCell id="10" value="prototype" style="text;html=1;align=center;verticalAlign=middle;resizable=0;points=[];autosize=1;strokeColor=none;fillColor=none;container=0;" parent="1" vertex="1">
                    <mxGeometry x="202" y="537" width="70" height="30" as="geometry"/>
                </mxCell>
                <mxCell id="11" style="edgeStyle=none;html=1;fillColor=#1ba1e2;strokeColor=#006EAF;" parent="1" source="12" target="9" edge="1">
                    <mxGeometry relative="1" as="geometry"/>
                </mxCell>
                <mxCell id="12" value="person1" style="text;html=1;align=center;verticalAlign=middle;resizable=0;points=[];autosize=1;strokeColor=none;fillColor=none;container=0;" parent="1" vertex="1">
                    <mxGeometry x="132" y="692" width="70" height="30" as="geometry"/>
                </mxCell>
                <mxCell id="4" value="" style="edgeStyle=none;html=1;" parent="1" source="5" target="12" edge="1">
                    <mxGeometry relative="1" as="geometry"/>
                </mxCell>
                <mxCell id="13" value="实例" style="text;html=1;align=center;verticalAlign=middle;resizable=0;points=[];autosize=1;strokeColor=none;fillColor=none;container=0;" parent="1" vertex="1">
                    <mxGeometry x="142" y="722" width="50" height="30" as="geometry"/>
                </mxCell>
                <mxCell id="14" value="__proto__" style="text;html=1;align=center;verticalAlign=middle;resizable=0;points=[];autosize=1;strokeColor=none;fillColor=none;container=0;" parent="1" vertex="1">
                    <mxGeometry x="228" y="647" width="80" height="30" as="geometry"/>
                </mxCell>
                <mxCell id="15" value="constructor" style="text;html=1;align=center;verticalAlign=middle;resizable=0;points=[];autosize=1;strokeColor=none;fillColor=none;container=0;" parent="1" vertex="1">
                    <mxGeometry x="202" y="487" width="80" height="30" as="geometry"/>
                </mxCell>
                <mxCell id="17" value="Object,prototype" style="text;html=1;align=center;verticalAlign=middle;resizable=0;points=[];autosize=1;strokeColor=none;fillColor=none;container=0;" parent="1" vertex="1">
                    <mxGeometry x="492" y="552" width="110" height="30" as="geometry"/>
                </mxCell>
                <mxCell id="7" value="" style="edgeStyle=none;html=1;fillColor=#1ba1e2;strokeColor=#006EAF;" parent="1" source="8" target="17" edge="1">
                    <mxGeometry relative="1" as="geometry"/>
                </mxCell>
                <mxCell id="18" value="__proto__" style="text;html=1;align=center;verticalAlign=middle;resizable=0;points=[];autosize=1;strokeColor=none;fillColor=none;container=0;" parent="1" vertex="1">
                    <mxGeometry x="402" y="537" width="80" height="30" as="geometry"/>
                </mxCell>
                <mxCell id="19" value="null" style="text;html=1;align=center;verticalAlign=middle;resizable=0;points=[];autosize=1;strokeColor=none;fillColor=none;container=0;" parent="1" vertex="1">
                    <mxGeometry x="702" y="552" width="40" height="30" as="geometry"/>
                </mxCell>
                <mxCell id="16" value="" style="edgeStyle=none;html=1;fillColor=#1ba1e2;strokeColor=#006EAF;" parent="1" source="17" target="19" edge="1">
                    <mxGeometry relative="1" as="geometry"/>
                </mxCell>
                <mxCell id="20" value="__proto__" style="text;html=1;align=center;verticalAlign=middle;resizable=0;points=[];autosize=1;strokeColor=none;fillColor=none;container=0;" parent="1" vertex="1">
                    <mxGeometry x="612" y="537" width="80" height="30" as="geometry"/>
                </mxCell>
            </root>
        </mxGraphModel>
    </diagram>
    <diagram id="f7h_pv6hlm9A4UVrGfdF" name="执行上下文1">
        <mxGraphModel dx="2077" dy="822" grid="1" gridSize="10" guides="1" tooltips="1" connect="1" arrows="1" fold="1" page="1" pageScale="1" pageWidth="291" pageHeight="413" math="0" shadow="0">
            <root>
                <mxCell id="0"/>
                <mxCell id="1" parent="0"/>
                <mxCell id="KBDqKNnfcGmhYNe1mZXW-1" value="" style="group" vertex="1" connectable="0" parent="1">
                    <mxGeometry x="-970" y="57" width="750" height="300" as="geometry"/>
                </mxCell>
                <mxCell id="KBDqKNnfcGmhYNe1mZXW-2" value="&lt;div style=&quot;color: rgb(248, 248, 242); background-color: rgb(40, 42, 54); font-family: Consolas, &amp;quot;Courier New&amp;quot;, monospace; font-weight: normal; font-size: 14px; line-height: 19px;&quot;&gt;&lt;div&gt;&lt;span style=&quot;color: #ff79c6;&quot;&gt;function&lt;/span&gt;&lt;span style=&quot;color: #f8f8f2;&quot;&gt; &lt;/span&gt;&lt;span style=&quot;color: #50fa7b;&quot;&gt;fun3&lt;/span&gt;&lt;span style=&quot;color: #f8f8f2;&quot;&gt;(){&lt;/span&gt;&lt;/div&gt;&lt;div&gt;&lt;span style=&quot;color: #f8f8f2;&quot;&gt;&amp;nbsp; console.&lt;/span&gt;&lt;span style=&quot;color: #50fa7b;&quot;&gt;log&lt;/span&gt;&lt;span style=&quot;color: #f8f8f2;&quot;&gt;(&lt;/span&gt;&lt;span style=&quot;color: #e9f284;&quot;&gt;&quot;&lt;/span&gt;&lt;span style=&quot;color: #f1fa8c;&quot;&gt;fun3&lt;/span&gt;&lt;span style=&quot;color: #e9f284;&quot;&gt;&quot;&lt;/span&gt;&lt;span style=&quot;color: #f8f8f2;&quot;&gt;)&lt;/span&gt;&lt;/div&gt;&lt;div&gt;&lt;span style=&quot;color: #f8f8f2;&quot;&gt;}&lt;/span&gt;&lt;/div&gt;&lt;div&gt;&lt;span style=&quot;color: #ff79c6;&quot;&gt;function&lt;/span&gt;&lt;span style=&quot;color: #f8f8f2;&quot;&gt; &lt;/span&gt;&lt;span style=&quot;color: #50fa7b;&quot;&gt;fun2&lt;/span&gt;&lt;span style=&quot;color: #f8f8f2;&quot;&gt;(){&lt;/span&gt;&lt;/div&gt;&lt;div&gt;&lt;span style=&quot;color: #f8f8f2;&quot;&gt;&amp;nbsp; &lt;/span&gt;&lt;span style=&quot;color: #50fa7b;&quot;&gt;fun3&lt;/span&gt;&lt;span style=&quot;color: #f8f8f2;&quot;&gt;()&lt;/span&gt;&lt;/div&gt;&lt;div&gt;&lt;span style=&quot;color: #f8f8f2;&quot;&gt;}&lt;/span&gt;&lt;/div&gt;&lt;div&gt;&lt;span style=&quot;color: #ff79c6;&quot;&gt;function&lt;/span&gt;&lt;span style=&quot;color: #f8f8f2;&quot;&gt; &lt;/span&gt;&lt;span style=&quot;color: #50fa7b;&quot;&gt;fun1&lt;/span&gt;&lt;span style=&quot;color: #f8f8f2;&quot;&gt;(){&lt;/span&gt;&lt;/div&gt;&lt;div&gt;&lt;span style=&quot;color: #f8f8f2;&quot;&gt;&amp;nbsp; &lt;/span&gt;&lt;span style=&quot;color: #50fa7b;&quot;&gt;fun2&lt;/span&gt;&lt;span style=&quot;color: #f8f8f2;&quot;&gt;()&lt;/span&gt;&lt;/div&gt;&lt;div&gt;&lt;span style=&quot;color: #f8f8f2;&quot;&gt;}&lt;/span&gt;&lt;/div&gt;&lt;div&gt;&lt;span style=&quot;color: #50fa7b;&quot;&gt;fun1&lt;/span&gt;&lt;span style=&quot;color: #f8f8f2;&quot;&gt;()&lt;/span&gt;&lt;/div&gt;&lt;/div&gt;" style="text;whiteSpace=wrap;html=1;" vertex="1" parent="KBDqKNnfcGmhYNe1mZXW-1">
                    <mxGeometry y="80" width="165" height="200" as="geometry"/>
                </mxCell>
                <mxCell id="KBDqKNnfcGmhYNe1mZXW-3" value="" style="shape=partialRectangle;whiteSpace=wrap;html=1;bottom=1;right=1;left=1;top=0;fillColor=none;routingCenterX=-0.5;" vertex="1" parent="KBDqKNnfcGmhYNe1mZXW-1">
                    <mxGeometry x="220" width="120" height="300" as="geometry"/>
                </mxCell>
                <mxCell id="KBDqKNnfcGmhYNe1mZXW-4" value="global context" style="rounded=0;whiteSpace=wrap;html=1;" vertex="1" parent="KBDqKNnfcGmhYNe1mZXW-1">
                    <mxGeometry x="220" y="240" width="120" height="60" as="geometry"/>
                </mxCell>
                <mxCell id="KBDqKNnfcGmhYNe1mZXW-5" value="fun1 context" style="rounded=0;whiteSpace=wrap;html=1;" vertex="1" parent="KBDqKNnfcGmhYNe1mZXW-1">
                    <mxGeometry x="220" y="180" width="120" height="60" as="geometry"/>
                </mxCell>
                <mxCell id="KBDqKNnfcGmhYNe1mZXW-6" value="fun2 context" style="rounded=0;whiteSpace=wrap;html=1;" vertex="1" parent="KBDqKNnfcGmhYNe1mZXW-1">
                    <mxGeometry x="220" y="120" width="120" height="60" as="geometry"/>
                </mxCell>
                <mxCell id="KBDqKNnfcGmhYNe1mZXW-7" value="fun3 context" style="rounded=0;whiteSpace=wrap;html=1;" vertex="1" parent="KBDqKNnfcGmhYNe1mZXW-1">
                    <mxGeometry x="220" y="60" width="120" height="60" as="geometry"/>
                </mxCell>
                <mxCell id="KBDqKNnfcGmhYNe1mZXW-8" value="global context" style="rounded=0;whiteSpace=wrap;html=1;" vertex="1" parent="KBDqKNnfcGmhYNe1mZXW-1">
                    <mxGeometry x="630" y="60" width="120" height="60" as="geometry"/>
                </mxCell>
                <mxCell id="KBDqKNnfcGmhYNe1mZXW-9" value="fun1 context" style="rounded=0;whiteSpace=wrap;html=1;" vertex="1" parent="KBDqKNnfcGmhYNe1mZXW-1">
                    <mxGeometry x="630" y="120" width="120" height="60" as="geometry"/>
                </mxCell>
                <mxCell id="KBDqKNnfcGmhYNe1mZXW-10" value="fun2 context" style="rounded=0;whiteSpace=wrap;html=1;" vertex="1" parent="KBDqKNnfcGmhYNe1mZXW-1">
                    <mxGeometry x="630" y="180" width="120" height="60" as="geometry"/>
                </mxCell>
                <mxCell id="KBDqKNnfcGmhYNe1mZXW-11" value="fun3 context" style="rounded=0;whiteSpace=wrap;html=1;" vertex="1" parent="KBDqKNnfcGmhYNe1mZXW-1">
                    <mxGeometry x="630" y="240" width="120" height="60" as="geometry"/>
                </mxCell>
                <mxCell id="KBDqKNnfcGmhYNe1mZXW-12" value="" style="shape=partialRectangle;whiteSpace=wrap;html=1;bottom=1;right=1;left=1;top=0;fillColor=none;routingCenterX=-0.5;" vertex="1" parent="KBDqKNnfcGmhYNe1mZXW-1">
                    <mxGeometry x="480" width="120" height="300" as="geometry"/>
                </mxCell>
                <mxCell id="KBDqKNnfcGmhYNe1mZXW-13" value="" style="edgeStyle=none;html=1;" edge="1" parent="KBDqKNnfcGmhYNe1mZXW-1" source="KBDqKNnfcGmhYNe1mZXW-3" target="KBDqKNnfcGmhYNe1mZXW-12">
                    <mxGeometry relative="1" as="geometry"/>
                </mxCell>
                <mxCell id="KBDqKNnfcGmhYNe1mZXW-14" value="&lt;font style=&quot;font-size: 21px;&quot;&gt;...&lt;/font&gt;" style="text;html=1;strokeColor=none;fillColor=none;align=center;verticalAlign=middle;whiteSpace=wrap;rounded=0;" vertex="1" parent="KBDqKNnfcGmhYNe1mZXW-1">
                    <mxGeometry x="380" y="120" width="60" height="30" as="geometry"/>
                </mxCell>
            </root>
        </mxGraphModel>
    </diagram>
    <diagram id="tU5nfeup1COU4y8PTDDg" name="执行上下文2">
        <mxGraphModel dx="1753" dy="-144" grid="1" gridSize="10" guides="1" tooltips="1" connect="1" arrows="1" fold="1" page="1" pageScale="1" pageWidth="291" pageHeight="413" math="0" shadow="0">
            <root>
                <mxCell id="0"/>
                <mxCell id="1" parent="0"/>
                <mxCell id="S94iE9uElWEW5yy_wLP--1" value="" style="group" vertex="1" connectable="0" parent="1">
                    <mxGeometry x="-1309" y="530" width="1450" height="899" as="geometry"/>
                </mxCell>
                <mxCell id="S94iE9uElWEW5yy_wLP--2" value="" style="shape=partialRectangle;whiteSpace=wrap;html=1;bottom=1;right=1;left=1;top=0;fillColor=none;routingCenterX=-0.5;" vertex="1" parent="S94iE9uElWEW5yy_wLP--1">
                    <mxGeometry x="360" y="180" width="120" height="240" as="geometry"/>
                </mxCell>
                <mxCell id="S94iE9uElWEW5yy_wLP--3" value="global context" style="rounded=0;whiteSpace=wrap;html=1;" vertex="1" parent="S94iE9uElWEW5yy_wLP--1">
                    <mxGeometry x="360" y="360" width="120" height="60" as="geometry"/>
                </mxCell>
                <mxCell id="S94iE9uElWEW5yy_wLP--4" value="&lt;div style=&quot;text-align: left;&quot;&gt;&lt;span style=&quot;background-color: initial;&quot;&gt;checkscope context&lt;/span&gt;&lt;/div&gt;" style="rounded=0;whiteSpace=wrap;html=1;" vertex="1" parent="S94iE9uElWEW5yy_wLP--1">
                    <mxGeometry x="360" y="300" width="120" height="60" as="geometry"/>
                </mxCell>
                <mxCell id="S94iE9uElWEW5yy_wLP--5" value="&lt;div style=&quot;text-align: left;&quot;&gt;&lt;span style=&quot;background-color: initial;&quot;&gt;f&lt;/span&gt;&lt;/div&gt;" style="rounded=0;whiteSpace=wrap;html=1;" vertex="1" parent="S94iE9uElWEW5yy_wLP--1">
                    <mxGeometry x="360" y="240" width="120" height="60" as="geometry"/>
                </mxCell>
                <mxCell id="S94iE9uElWEW5yy_wLP--6" value="&lt;div style=&quot;color: rgb(248, 248, 242); background-color: rgb(40, 42, 54); font-family: Consolas, &amp;quot;Courier New&amp;quot;, monospace; font-weight: normal; font-size: 14px; line-height: 19px;&quot;&gt;&lt;div&gt;&lt;span style=&quot;color: #6272a4;&quot;&gt;// case1&lt;/span&gt;&lt;/div&gt;&lt;div&gt;&lt;span style=&quot;color: #ff79c6;&quot;&gt;var&lt;/span&gt;&lt;span style=&quot;color: #f8f8f2;&quot;&gt; scope &lt;/span&gt;&lt;span style=&quot;color: #ff79c6;&quot;&gt;=&lt;/span&gt;&lt;span style=&quot;color: #f8f8f2;&quot;&gt; &lt;/span&gt;&lt;span style=&quot;color: #e9f284;&quot;&gt;&quot;&lt;/span&gt;&lt;span style=&quot;color: #f1fa8c;&quot;&gt;global scope&lt;/span&gt;&lt;span style=&quot;color: #e9f284;&quot;&gt;&quot;&lt;/span&gt;&lt;/div&gt;&lt;div&gt;&lt;span style=&quot;color: #ff79c6;&quot;&gt;function&lt;/span&gt;&lt;span style=&quot;color: #f8f8f2;&quot;&gt; &lt;/span&gt;&lt;span style=&quot;color: #50fa7b;&quot;&gt;checkscope&lt;/span&gt;&lt;span style=&quot;color: #f8f8f2;&quot;&gt;(){&lt;/span&gt;&lt;/div&gt;&lt;div&gt;&lt;span style=&quot;color: #f8f8f2;&quot;&gt;&amp;nbsp; &lt;/span&gt;&lt;span style=&quot;color: #ff79c6;&quot;&gt;var&lt;/span&gt;&lt;span style=&quot;color: #f8f8f2;&quot;&gt; scope &lt;/span&gt;&lt;span style=&quot;color: #ff79c6;&quot;&gt;=&lt;/span&gt;&lt;span style=&quot;color: #f8f8f2;&quot;&gt; &lt;/span&gt;&lt;span style=&quot;color: #e9f284;&quot;&gt;&quot;&lt;/span&gt;&lt;span style=&quot;color: #f1fa8c;&quot;&gt;local scope&lt;/span&gt;&lt;span style=&quot;color: #e9f284;&quot;&gt;&quot;&lt;/span&gt;&lt;/div&gt;&lt;div&gt;&lt;span style=&quot;color: #f8f8f2;&quot;&gt;&amp;nbsp; &lt;/span&gt;&lt;span style=&quot;color: #ff79c6;&quot;&gt;function&lt;/span&gt;&lt;span style=&quot;color: #f8f8f2;&quot;&gt; &lt;/span&gt;&lt;span style=&quot;color: #50fa7b;&quot;&gt;f&lt;/span&gt;&lt;span style=&quot;color: #f8f8f2;&quot;&gt;(){&lt;/span&gt;&lt;/div&gt;&lt;div&gt;&lt;span style=&quot;color: #f8f8f2;&quot;&gt;&amp;nbsp; &amp;nbsp; &lt;/span&gt;&lt;span style=&quot;color: #ff79c6;&quot;&gt;return&lt;/span&gt;&lt;span style=&quot;color: #f8f8f2;&quot;&gt; scope&lt;/span&gt;&lt;/div&gt;&lt;div&gt;&lt;span style=&quot;color: #f8f8f2;&quot;&gt;&amp;nbsp; }&lt;/span&gt;&lt;/div&gt;&lt;div&gt;&lt;span style=&quot;color: #f8f8f2;&quot;&gt;&amp;nbsp; &lt;/span&gt;&lt;span style=&quot;color: #ff79c6;&quot;&gt;return&lt;/span&gt;&lt;span style=&quot;color: #f8f8f2;&quot;&gt; &lt;/span&gt;&lt;span style=&quot;color: #50fa7b;&quot;&gt;f&lt;/span&gt;&lt;span style=&quot;color: #f8f8f2;&quot;&gt;()&lt;/span&gt;&lt;/div&gt;&lt;div&gt;&lt;span style=&quot;color: #f8f8f2;&quot;&gt;}&lt;/span&gt;&lt;/div&gt;&lt;div&gt;&lt;span style=&quot;color: #f8f8f2;&quot;&gt;console.&lt;/span&gt;&lt;span style=&quot;color: #50fa7b;&quot;&gt;log&lt;/span&gt;&lt;span style=&quot;color: #f8f8f2;&quot;&gt;(&lt;/span&gt;&lt;span style=&quot;color: #50fa7b;&quot;&gt;checkscope&lt;/span&gt;&lt;span style=&quot;color: #f8f8f2;&quot;&gt;()) &lt;/span&gt;&lt;span style=&quot;color: #6272a4;&quot;&gt;// local scope&lt;/span&gt;&lt;/div&gt;&lt;br&gt;&lt;div&gt;&lt;span style=&quot;color: #6272a4;&quot;&gt;// case2&lt;/span&gt;&lt;/div&gt;&lt;div&gt;&lt;span style=&quot;color: #ff79c6;&quot;&gt;var&lt;/span&gt;&lt;span style=&quot;color: #f8f8f2;&quot;&gt; scope &lt;/span&gt;&lt;span style=&quot;color: #ff79c6;&quot;&gt;=&lt;/span&gt;&lt;span style=&quot;color: #f8f8f2;&quot;&gt; &lt;/span&gt;&lt;span style=&quot;color: #e9f284;&quot;&gt;&quot;&lt;/span&gt;&lt;span style=&quot;color: #f1fa8c;&quot;&gt;global scope&lt;/span&gt;&lt;span style=&quot;color: #e9f284;&quot;&gt;&quot;&lt;/span&gt;&lt;/div&gt;&lt;div&gt;&lt;span style=&quot;color: #ff79c6;&quot;&gt;function&lt;/span&gt;&lt;span style=&quot;color: #f8f8f2;&quot;&gt; &lt;/span&gt;&lt;span style=&quot;color: #50fa7b;&quot;&gt;checkscope&lt;/span&gt;&lt;span style=&quot;color: #f8f8f2;&quot;&gt;(){&lt;/span&gt;&lt;/div&gt;&lt;div&gt;&lt;span style=&quot;color: #f8f8f2;&quot;&gt;&amp;nbsp; &lt;/span&gt;&lt;span style=&quot;color: #ff79c6;&quot;&gt;var&lt;/span&gt;&lt;span style=&quot;color: #f8f8f2;&quot;&gt; scope &lt;/span&gt;&lt;span style=&quot;color: #ff79c6;&quot;&gt;=&lt;/span&gt;&lt;span style=&quot;color: #f8f8f2;&quot;&gt; &lt;/span&gt;&lt;span style=&quot;color: #e9f284;&quot;&gt;&quot;&lt;/span&gt;&lt;span style=&quot;color: #f1fa8c;&quot;&gt;local scope&lt;/span&gt;&lt;span style=&quot;color: #e9f284;&quot;&gt;&quot;&lt;/span&gt;&lt;span style=&quot;color: #f8f8f2;&quot;&gt;;&lt;/span&gt;&lt;/div&gt;&lt;div&gt;&lt;span style=&quot;color: #f8f8f2;&quot;&gt;&amp;nbsp; &lt;/span&gt;&lt;span style=&quot;color: #ff79c6;&quot;&gt;function&lt;/span&gt;&lt;span style=&quot;color: #f8f8f2;&quot;&gt; &lt;/span&gt;&lt;span style=&quot;color: #50fa7b;&quot;&gt;f&lt;/span&gt;&lt;span style=&quot;color: #f8f8f2;&quot;&gt;(){&lt;/span&gt;&lt;/div&gt;&lt;div&gt;&lt;span style=&quot;color: #f8f8f2;&quot;&gt;&amp;nbsp; &amp;nbsp; &lt;/span&gt;&lt;span style=&quot;color: #ff79c6;&quot;&gt;return&lt;/span&gt;&lt;span style=&quot;color: #f8f8f2;&quot;&gt; scope;&lt;/span&gt;&lt;/div&gt;&lt;div&gt;&lt;span style=&quot;color: #f8f8f2;&quot;&gt;&amp;nbsp; }&lt;/span&gt;&lt;/div&gt;&lt;div&gt;&lt;span style=&quot;color: #f8f8f2;&quot;&gt;&amp;nbsp; &lt;/span&gt;&lt;span style=&quot;color: #ff79c6;&quot;&gt;return&lt;/span&gt;&lt;span style=&quot;color: #f8f8f2;&quot;&gt; f&lt;/span&gt;&lt;/div&gt;&lt;div&gt;&lt;span style=&quot;color: #f8f8f2;&quot;&gt;}&lt;/span&gt;&lt;/div&gt;&lt;div&gt;&lt;span style=&quot;color: #f8f8f2;&quot;&gt;console.&lt;/span&gt;&lt;span style=&quot;color: #50fa7b;&quot;&gt;log&lt;/span&gt;&lt;span style=&quot;color: #f8f8f2;&quot;&gt;(&lt;/span&gt;&lt;span style=&quot;color: #50fa7b;&quot;&gt;checkscope&lt;/span&gt;&lt;span style=&quot;color: #f8f8f2;&quot;&gt;()()) &lt;/span&gt;&lt;span style=&quot;color: #6272a4;&quot;&gt;// local scope&lt;/span&gt;&lt;/div&gt;&lt;/div&gt;" style="text;whiteSpace=wrap;html=1;" vertex="1" parent="S94iE9uElWEW5yy_wLP--1">
                    <mxGeometry y="180" width="360" height="420" as="geometry"/>
                </mxCell>
                <mxCell id="S94iE9uElWEW5yy_wLP--7" value="" style="shape=partialRectangle;whiteSpace=wrap;html=1;bottom=1;right=1;left=1;top=0;fillColor=none;routingCenterX=-0.5;" vertex="1" parent="S94iE9uElWEW5yy_wLP--1">
                    <mxGeometry x="560" y="180" width="120" height="240" as="geometry"/>
                </mxCell>
                <mxCell id="S94iE9uElWEW5yy_wLP--8" value="" style="edgeStyle=none;html=1;" edge="1" parent="S94iE9uElWEW5yy_wLP--1" source="S94iE9uElWEW5yy_wLP--2" target="S94iE9uElWEW5yy_wLP--7">
                    <mxGeometry relative="1" as="geometry"/>
                </mxCell>
                <mxCell id="S94iE9uElWEW5yy_wLP--9" value="&lt;div style=&quot;text-align: left;&quot;&gt;&lt;span style=&quot;background-color: initial;&quot;&gt;checkscope context&lt;/span&gt;&lt;/div&gt;" style="rounded=0;whiteSpace=wrap;html=1;" vertex="1" parent="S94iE9uElWEW5yy_wLP--1">
                    <mxGeometry x="560" y="300" width="120" height="60" as="geometry"/>
                </mxCell>
                <mxCell id="S94iE9uElWEW5yy_wLP--10" value="global context" style="rounded=0;whiteSpace=wrap;html=1;" vertex="1" parent="S94iE9uElWEW5yy_wLP--1">
                    <mxGeometry x="560" y="360" width="120" height="60" as="geometry"/>
                </mxCell>
                <mxCell id="S94iE9uElWEW5yy_wLP--11" value="&lt;div style=&quot;text-align: left;&quot;&gt;&lt;span style=&quot;background-color: initial;&quot;&gt;f&lt;/span&gt;&lt;/div&gt;" style="rounded=0;whiteSpace=wrap;html=1;" vertex="1" parent="S94iE9uElWEW5yy_wLP--1">
                    <mxGeometry x="710" y="120" width="120" height="60" as="geometry"/>
                </mxCell>
                <mxCell id="S94iE9uElWEW5yy_wLP--12" style="edgeStyle=none;html=1;exitX=0.75;exitY=0;exitDx=0;exitDy=0;entryX=0;entryY=0.5;entryDx=0;entryDy=0;" edge="1" parent="S94iE9uElWEW5yy_wLP--1" source="S94iE9uElWEW5yy_wLP--7" target="S94iE9uElWEW5yy_wLP--11">
                    <mxGeometry relative="1" as="geometry"/>
                </mxCell>
                <mxCell id="S94iE9uElWEW5yy_wLP--13" value="" style="shape=partialRectangle;whiteSpace=wrap;html=1;bottom=1;right=1;left=1;top=0;fillColor=none;routingCenterX=-0.5;" vertex="1" parent="S94iE9uElWEW5yy_wLP--1">
                    <mxGeometry x="860" y="180" width="120" height="240" as="geometry"/>
                </mxCell>
                <mxCell id="S94iE9uElWEW5yy_wLP--14" value="" style="edgeStyle=none;html=1;" edge="1" parent="S94iE9uElWEW5yy_wLP--1" source="S94iE9uElWEW5yy_wLP--7" target="S94iE9uElWEW5yy_wLP--13">
                    <mxGeometry relative="1" as="geometry"/>
                </mxCell>
                <mxCell id="S94iE9uElWEW5yy_wLP--15" value="global context" style="rounded=0;whiteSpace=wrap;html=1;" vertex="1" parent="S94iE9uElWEW5yy_wLP--1">
                    <mxGeometry x="1330" width="120" height="60" as="geometry"/>
                </mxCell>
                <mxCell id="S94iE9uElWEW5yy_wLP--16" value="&lt;div style=&quot;text-align: left;&quot;&gt;&lt;span style=&quot;background-color: initial;&quot;&gt;f&lt;/span&gt;&lt;/div&gt;" style="rounded=0;whiteSpace=wrap;html=1;" vertex="1" parent="S94iE9uElWEW5yy_wLP--1">
                    <mxGeometry x="1010" y="120" width="120" height="60" as="geometry"/>
                </mxCell>
                <mxCell id="S94iE9uElWEW5yy_wLP--17" value="&lt;div style=&quot;text-align: left;&quot;&gt;&lt;span style=&quot;background-color: initial;&quot;&gt;checkscope context&lt;/span&gt;&lt;/div&gt;" style="rounded=0;whiteSpace=wrap;html=1;" vertex="1" parent="S94iE9uElWEW5yy_wLP--1">
                    <mxGeometry x="1010" y="60" width="120" height="60" as="geometry"/>
                </mxCell>
                <mxCell id="S94iE9uElWEW5yy_wLP--18" style="edgeStyle=none;html=1;exitX=0.75;exitY=0;exitDx=0;exitDy=0;entryX=0;entryY=0.5;entryDx=0;entryDy=0;" edge="1" parent="S94iE9uElWEW5yy_wLP--1" source="S94iE9uElWEW5yy_wLP--13" target="S94iE9uElWEW5yy_wLP--17">
                    <mxGeometry relative="1" as="geometry"/>
                </mxCell>
                <mxCell id="S94iE9uElWEW5yy_wLP--19" style="edgeStyle=none;html=1;exitX=0.75;exitY=0;exitDx=0;exitDy=0;entryX=0;entryY=0.5;entryDx=0;entryDy=0;" edge="1" parent="S94iE9uElWEW5yy_wLP--1" source="S94iE9uElWEW5yy_wLP--20" target="S94iE9uElWEW5yy_wLP--15">
                    <mxGeometry relative="1" as="geometry"/>
                </mxCell>
                <mxCell id="S94iE9uElWEW5yy_wLP--20" value="" style="shape=partialRectangle;whiteSpace=wrap;html=1;bottom=1;right=1;left=1;top=0;fillColor=none;routingCenterX=-0.5;" vertex="1" parent="S94iE9uElWEW5yy_wLP--1">
                    <mxGeometry x="1170" y="180" width="120" height="240" as="geometry"/>
                </mxCell>
                <mxCell id="S94iE9uElWEW5yy_wLP--21" value="" style="edgeStyle=none;html=1;" edge="1" parent="S94iE9uElWEW5yy_wLP--1" source="S94iE9uElWEW5yy_wLP--13" target="S94iE9uElWEW5yy_wLP--20">
                    <mxGeometry relative="1" as="geometry"/>
                </mxCell>
                <mxCell id="S94iE9uElWEW5yy_wLP--22" value="&lt;div style=&quot;text-align: left;&quot;&gt;&lt;span style=&quot;background-color: initial;&quot;&gt;f&lt;/span&gt;&lt;/div&gt;" style="rounded=0;whiteSpace=wrap;html=1;" vertex="1" parent="S94iE9uElWEW5yy_wLP--1">
                    <mxGeometry x="1330" y="120" width="120" height="60" as="geometry"/>
                </mxCell>
                <mxCell id="S94iE9uElWEW5yy_wLP--23" value="&lt;div style=&quot;text-align: left;&quot;&gt;&lt;span style=&quot;background-color: initial;&quot;&gt;checkscope context&lt;/span&gt;&lt;/div&gt;" style="rounded=0;whiteSpace=wrap;html=1;" vertex="1" parent="S94iE9uElWEW5yy_wLP--1">
                    <mxGeometry x="1330" y="60" width="120" height="60" as="geometry"/>
                </mxCell>
                <mxCell id="S94iE9uElWEW5yy_wLP--24" value="global context" style="rounded=0;whiteSpace=wrap;html=1;" vertex="1" parent="S94iE9uElWEW5yy_wLP--1">
                    <mxGeometry x="860" y="360" width="120" height="60" as="geometry"/>
                </mxCell>
                <mxCell id="S94iE9uElWEW5yy_wLP--25" value="" style="shape=partialRectangle;whiteSpace=wrap;html=1;bottom=1;right=1;left=1;top=0;fillColor=none;routingCenterX=-0.5;" vertex="1" parent="S94iE9uElWEW5yy_wLP--1">
                    <mxGeometry x="360" y="659" width="120" height="240" as="geometry"/>
                </mxCell>
                <mxCell id="S94iE9uElWEW5yy_wLP--26" value="global context" style="rounded=0;whiteSpace=wrap;html=1;" vertex="1" parent="S94iE9uElWEW5yy_wLP--1">
                    <mxGeometry x="360" y="839" width="120" height="60" as="geometry"/>
                </mxCell>
                <mxCell id="S94iE9uElWEW5yy_wLP--27" value="&lt;div style=&quot;text-align: left;&quot;&gt;&lt;span style=&quot;background-color: initial;&quot;&gt;checkscope context&lt;/span&gt;&lt;/div&gt;" style="rounded=0;whiteSpace=wrap;html=1;" vertex="1" parent="S94iE9uElWEW5yy_wLP--1">
                    <mxGeometry x="360" y="779" width="120" height="60" as="geometry"/>
                </mxCell>
                <mxCell id="S94iE9uElWEW5yy_wLP--28" value="" style="shape=partialRectangle;whiteSpace=wrap;html=1;bottom=1;right=1;left=1;top=0;fillColor=none;routingCenterX=-0.5;" vertex="1" parent="S94iE9uElWEW5yy_wLP--1">
                    <mxGeometry x="560" y="659" width="120" height="240" as="geometry"/>
                </mxCell>
                <mxCell id="S94iE9uElWEW5yy_wLP--29" value="" style="edgeStyle=none;html=1;" edge="1" parent="S94iE9uElWEW5yy_wLP--1" source="S94iE9uElWEW5yy_wLP--25" target="S94iE9uElWEW5yy_wLP--28">
                    <mxGeometry relative="1" as="geometry"/>
                </mxCell>
                <mxCell id="S94iE9uElWEW5yy_wLP--30" value="&lt;div style=&quot;text-align: left;&quot;&gt;&lt;span style=&quot;background-color: initial;&quot;&gt;checkscope context&lt;/span&gt;&lt;/div&gt;" style="rounded=0;whiteSpace=wrap;html=1;" vertex="1" parent="S94iE9uElWEW5yy_wLP--1">
                    <mxGeometry x="710" y="599" width="120" height="60" as="geometry"/>
                </mxCell>
                <mxCell id="S94iE9uElWEW5yy_wLP--31" style="edgeStyle=none;html=1;exitX=0.75;exitY=0;exitDx=0;exitDy=0;entryX=0;entryY=0.5;entryDx=0;entryDy=0;" edge="1" parent="S94iE9uElWEW5yy_wLP--1" source="S94iE9uElWEW5yy_wLP--28" target="S94iE9uElWEW5yy_wLP--30">
                    <mxGeometry relative="1" as="geometry"/>
                </mxCell>
                <mxCell id="S94iE9uElWEW5yy_wLP--32" value="global context" style="rounded=0;whiteSpace=wrap;html=1;" vertex="1" parent="S94iE9uElWEW5yy_wLP--1">
                    <mxGeometry x="560" y="839" width="120" height="60" as="geometry"/>
                </mxCell>
                <mxCell id="S94iE9uElWEW5yy_wLP--33" value="" style="shape=partialRectangle;whiteSpace=wrap;html=1;bottom=1;right=1;left=1;top=0;fillColor=none;routingCenterX=-0.5;" vertex="1" parent="S94iE9uElWEW5yy_wLP--1">
                    <mxGeometry x="860" y="659" width="120" height="240" as="geometry"/>
                </mxCell>
                <mxCell id="S94iE9uElWEW5yy_wLP--34" value="" style="edgeStyle=none;html=1;" edge="1" parent="S94iE9uElWEW5yy_wLP--1" source="S94iE9uElWEW5yy_wLP--28" target="S94iE9uElWEW5yy_wLP--33">
                    <mxGeometry relative="1" as="geometry"/>
                </mxCell>
                <mxCell id="S94iE9uElWEW5yy_wLP--35" value="&lt;div style=&quot;text-align: left;&quot;&gt;&lt;span style=&quot;background-color: initial;&quot;&gt;f&lt;/span&gt;&lt;/div&gt;" style="rounded=0;whiteSpace=wrap;html=1;" vertex="1" parent="S94iE9uElWEW5yy_wLP--1">
                    <mxGeometry x="560" y="779" width="120" height="60" as="geometry"/>
                </mxCell>
                <mxCell id="S94iE9uElWEW5yy_wLP--36" value="&lt;div style=&quot;text-align: left;&quot;&gt;&lt;span style=&quot;background-color: initial;&quot;&gt;checkscope context&lt;/span&gt;&lt;/div&gt;" style="rounded=0;whiteSpace=wrap;html=1;" vertex="1" parent="S94iE9uElWEW5yy_wLP--1">
                    <mxGeometry x="1010" y="599" width="120" height="60" as="geometry"/>
                </mxCell>
                <mxCell id="S94iE9uElWEW5yy_wLP--37" value="" style="shape=partialRectangle;whiteSpace=wrap;html=1;bottom=1;right=1;left=1;top=0;fillColor=none;routingCenterX=-0.5;" vertex="1" parent="S94iE9uElWEW5yy_wLP--1">
                    <mxGeometry x="1170" y="659" width="120" height="240" as="geometry"/>
                </mxCell>
                <mxCell id="S94iE9uElWEW5yy_wLP--38" value="" style="edgeStyle=none;html=1;" edge="1" parent="S94iE9uElWEW5yy_wLP--1" source="S94iE9uElWEW5yy_wLP--33" target="S94iE9uElWEW5yy_wLP--37">
                    <mxGeometry relative="1" as="geometry"/>
                </mxCell>
                <mxCell id="S94iE9uElWEW5yy_wLP--39" value="&lt;div style=&quot;text-align: left;&quot;&gt;&lt;span style=&quot;background-color: initial;&quot;&gt;f&lt;/span&gt;&lt;/div&gt;" style="rounded=0;whiteSpace=wrap;html=1;" vertex="1" parent="S94iE9uElWEW5yy_wLP--1">
                    <mxGeometry x="1330" y="537" width="120" height="60" as="geometry"/>
                </mxCell>
                <mxCell id="S94iE9uElWEW5yy_wLP--40" value="&lt;div style=&quot;text-align: left;&quot;&gt;&lt;span style=&quot;background-color: initial;&quot;&gt;checkscope context&lt;/span&gt;&lt;/div&gt;" style="rounded=0;whiteSpace=wrap;html=1;" vertex="1" parent="S94iE9uElWEW5yy_wLP--1">
                    <mxGeometry x="1330" y="597" width="120" height="60" as="geometry"/>
                </mxCell>
                <mxCell id="S94iE9uElWEW5yy_wLP--41" value="global context" style="rounded=0;whiteSpace=wrap;html=1;" vertex="1" parent="S94iE9uElWEW5yy_wLP--1">
                    <mxGeometry x="860" y="839" width="120" height="60" as="geometry"/>
                </mxCell>
                <mxCell id="S94iE9uElWEW5yy_wLP--42" value="global context" style="rounded=0;whiteSpace=wrap;html=1;" vertex="1" parent="S94iE9uElWEW5yy_wLP--1">
                    <mxGeometry x="1330" y="479" width="120" height="60" as="geometry"/>
                </mxCell>
                <mxCell id="S94iE9uElWEW5yy_wLP--43" style="edgeStyle=none;html=1;exitX=0.75;exitY=0;exitDx=0;exitDy=0;entryX=0;entryY=0.5;entryDx=0;entryDy=0;" edge="1" parent="S94iE9uElWEW5yy_wLP--1" source="S94iE9uElWEW5yy_wLP--37" target="S94iE9uElWEW5yy_wLP--42">
                    <mxGeometry relative="1" as="geometry"/>
                </mxCell>
                <mxCell id="S94iE9uElWEW5yy_wLP--44" value="" style="endArrow=classic;html=1;entryX=0.25;entryY=0;entryDx=0;entryDy=0;" edge="1" parent="S94iE9uElWEW5yy_wLP--1" target="S94iE9uElWEW5yy_wLP--2">
                    <mxGeometry width="50" height="50" relative="1" as="geometry">
                        <mxPoint x="350" y="135" as="sourcePoint"/>
                        <mxPoint x="400" y="85" as="targetPoint"/>
                    </mxGeometry>
                </mxCell>
                <mxCell id="S94iE9uElWEW5yy_wLP--45" value="" style="endArrow=classic;html=1;entryX=0.25;entryY=0;entryDx=0;entryDy=0;" edge="1" parent="S94iE9uElWEW5yy_wLP--1" target="S94iE9uElWEW5yy_wLP--28">
                    <mxGeometry width="50" height="50" relative="1" as="geometry">
                        <mxPoint x="550" y="609" as="sourcePoint"/>
                        <mxPoint x="590" y="569" as="targetPoint"/>
                    </mxGeometry>
                </mxCell>
                <mxCell id="S94iE9uElWEW5yy_wLP--46" value="&lt;div style=&quot;text-align: left;&quot;&gt;&lt;span style=&quot;background-color: initial;&quot;&gt;f&lt;/span&gt;&lt;/div&gt;" style="rounded=0;whiteSpace=wrap;html=1;" vertex="1" parent="S94iE9uElWEW5yy_wLP--1">
                    <mxGeometry x="1010" y="539" width="120" height="60" as="geometry"/>
                </mxCell>
                <mxCell id="S94iE9uElWEW5yy_wLP--47" style="edgeStyle=none;html=1;exitX=0.75;exitY=0;exitDx=0;exitDy=0;entryX=0;entryY=0.5;entryDx=0;entryDy=0;" edge="1" parent="S94iE9uElWEW5yy_wLP--1" source="S94iE9uElWEW5yy_wLP--33" target="S94iE9uElWEW5yy_wLP--46">
                    <mxGeometry relative="1" as="geometry"/>
                </mxCell>
            </root>
        </mxGraphModel>
    </diagram>
</mxfile>